/* XPM */
static char *_1b4f7cb29064949b04e5abde14bb29aK6jD5MvK08tbrDV7[] = {
/* columns rows colors chars-per-pixel */
"64 64 138 2 ",
"   c None",
".  c #010101",
"X  c #090605",
"o  c #0C0807",
"O  c #0E0A08",
"+  c #130D0B",
"@  c #17100D",
"#  c #19110F",
"$  c #1D1411",
"%  c #211613",
"&  c #251916",
"*  c #281A17",
"=  c #2B1D1A",
"-  c #2E211C",
";  c #32221E",
":  c #362520",
">  c #392722",
",  c #3D2A24",
"<  c #412D26",
"1  c #412C27",
"2  c #402D26",
"3  c #422C27",
"4  c #432C27",
"5  c #412E27",
"6  c #412C26",
"7  c #432D28",
"8  c #432F28",
"9  c #442D28",
"0  c #452E28",
"q  c #452E29",
"w  c #462F29",
"e  c #472F2A",
"r  c #452E29",
"t  c #443028",
"y  c #453029",
"u  c #47302A",
"i  c #463129",
"p  c #48302A",
"a  c #48302B",
"s  c #49302B",
"d  c #49312B",
"f  c #4A312B",
"g  c #48322B",
"h  c #48332B",
"j  c #49332B",
"k  c #4A312C",
"l  c #4A322C",
"z  c #4B322C",
"x  c #4C322D",
"c  c #4C332D",
"v  c #4D332D",
"b  c #4D332E",
"n  c #4A342C",
"m  c #4B352D",
"M  c #4D342E",
"N  c #4E342E",
"B  c #4F342E",
"V  c #4F352E",
"C  c #4F352F",
"Z  c #4C362E",
"A  c #4D362E",
"S  c #4E372E",
"D  c #4E342E",
"F  c #4F382F",
"G  c #50352F",
"H  c #50362F",
"J  c #51362F",
"K  c #50352F",
"L  c #50382F",
"P  c #513630",
"I  c #513630",
"U  c #503830",
"Y  c #513930",
"T  c #533831",
"R  c #533B32",
"E  c #543A32",
"W  c #543B32",
"Q  c #553B32",
"!  c #563C33",
"~  c #563D33",
"^  c #573D34",
"/  c #543B32",
"(  c #593C34",
")  c #583E34",
"_  c #593F35",
"`  c #5A3E35",
"'  c #5B4036",
"]  c #5C4137",
"[  c #5E4238",
"{  c #5E4238",
"}  c #61443A",
"|  c #62453A",
" . c #64463C",
".. c #65473C",
"X. c #66463C",
"o. c #66473C",
"O. c #63463B",
"+. c #66483D",
"@. c #67483D",
"#. c #67493E",
"$. c #68493E",
"%. c #6A4B3F",
"&. c #694A3E",
"*. c #6C4C40",
"=. c #6D4D41",
"-. c #6E4E42",
";. c #6F4E42",
":. c #6D4C41",
">. c #704E42",
",. c #704E43",
"<. c #704F43",
"1. c #714F43",
"2. c #714F43",
"3. c #725044",
"4. c #735044",
"5. c #735144",
"6. c #735145",
"7. c #745145",
"8. c #745245",
"9. c #755245",
"0. c #755246",
"q. c #755346",
"w. c #765346",
"e. c #775347",
"r. c #775447",
"t. c #755246",
"y. c #785447",
"u. c #785447",
"i. c #795548",
"p. c #7A5548",
"a. c #7A5648",
"s. c #7A5649",
"d. c #7B5649",
"f. c #7B5749",
"g. c #7C574A",
"h. c #7A5548",
"j. c #7D584A",
"k. c #7D584A",
/* pixels */
"                                                                        . . .               . . . . . .                         ",
"                                                                  . . . . . . .       . . . . . . . . . . . . . .               ",
"                                                            . . . . X + * ; O . . . . . X $ ; n ~ [ 4 . . . . . . . .           ",
"                                                        . . . X + = 4 z H c # . . . @ , | r.s.j.d.j.F . . + ; > & . . .         ",
"                                              . . . . . . . $ , s , , c c c & . o 8 =.s.3.R +.d.d.d.i . o 4 H H G , O . .       ",
"                                            . . . . . . $ , c G 4 . o w G H * . * r.s.s.n . & 3.r.d.8 . # n C 0 * , , X .       ",
"                                        . . . + % . . o , G G I 4 + # s c C ; . & r.d.d.' @ > r.d.d.4 . $ z C = . + c = . .     ",
"                                      . . . & z , X . . X $ > s c s c c C C ; . $ 3.r.u.d.-.r.r.r.d., . $ C C > @ - C w o .     ",
"                                    . . . ; I C 4 o . + . . . + * , z c C C > . $ 3.d.r.d.d.u.d.d.s.> . $ C C C c G c s O .     ",
"                                    . . = 4 > c i O . ^ ~ - O . . . + $ = > & . # 3.d.d.d.d.d.d.d.s.> . % C C H c G C - . .     ",
"                              . . . . $ w O X > f O . ) j.r. .h & + . . . . . . X & ; , 7 n I Q ^ ' & . # > ; ; ; - & X . .     ",
"                          . . . . . o t z @ o 4 f + . F d.d.d.d.0.%.~ , = # o . . . . . . . . . . . . . . . . . . . . . . . .   ",
"                        . . . . $ X . , C f 0 C z @ . f d.d.r.d.d.d.d.d.r.3., . O * & $ @ + + O O O X . o @ # $ $ & % $ # . .   ",
"                      . . + X . , $ . * C c C c C # . , d.r.d.r.d.d.d.r.d.s.i . # C H C G c c s f i $ . > 3.3.3.0.0.1.Q s + .   ",
"                    . . $ 4 + . C C . X , H C C C $ . > d.d.d.r.0.|  .d.u.d.4 . $ c C c c G s , z C % . > s.r.d.d.d.3.Y w O .   ",
"                  . . $ f f O . L 3.% . @ f C C F * . - r.d.r.d.| o + -.d.d., . $ c c C G c $ . = H % . ; d.d.u.d.d.1.I 7 X .   ",
"                . . + w C w o . ) g.' X . & z C C = . * r.d.r.d...@ $ <.s.s.> . % G c G c c & X ; H & . - s.u.s.| , Y H > . .   ",
"            . . . . > I c w X . ` g.d.f . . $ w I - . % 0.u.d.r.u.-.<.u.a.s.> . % c G c H c f 0 c C * . - s.s.u.- . & C = . .   ",
"          . . . . $ f C G 9 X X { g.d.0.i . . + , ; . # 3.d.r.d.u.a.u.s.r.s.> . % G c G c G c C c C = . * r.u.a.' * > C # . .   ",
"        . . + O . = C c G 4 X . | d.u.d.d.C O . X + . + <.d.d.r.u.a.s.r.s.s.; . % c G c G c C n c C ; . $ r.s.s.r.<.Y 4 X .     ",
"        . . n ; . $ C C C 7 . X  .s.r.d.d.d.[ * . . . X i %.0.d.s.s.u.d.u.s.> . & c c G C C C C C H > . @ 1.s.u.d. .H * . .     ",
"        . # 1.~ . X 4 C C , X o +.s.d.r.r.d.d.q.H $ . . . O & , ~ ..-.r.r.d., . % G G G C C C C C H 4 . + -.j.s.0.( w O .       ",
"      . . 4 d.3.$ . & C C 4 X o +.s.r.d.r.r.r.r.d.%.O . X . . . . o + % = > $ . + ; ; : > ; ; ; - = & . . ; > > > - $ . .       ",
"      . o  .d.d.C . X , H , . o +.s.d.F $ ~ s.d.d.1.@ . ; , * $ O X . . . . . . . . . . . . . . . . . . . . . . . . . . . .     ",
"      . & q.r.d.3.& . @ z 4 X o %.s.d.- . > d.d.r.3.$ . ; I I c i 4 > - * & + . X # $ # # # # $ $ & * o . $ ; - = & # X . . .   ",
"    . . 4 d.d.r.s.[ O . & , . O +.s.d.| t +.d.r.d.r.& . = C c H C C G H I G : . @ *.3.3.3.3.3.q.q.r.r.; . > d.d.d.0.-.z > X .   ",
"    . . ' d.r.d.d.u.i . . $ . o +.d.r.d.d.d.d.r.u.r.- . * I c G c c c H c C > . + -.d.d.i.i.i.i.a.r.d.8 . = u.d.u.d.-.H 4 . .   ",
"    . + %.d.d.r.u.d.d., . . . o +.d.r.d.r.d.r.d.d.d.> . % c G c C w & ; C I 4 . o +.d.r.i.i.i.r.r.s.d.~ . @ -.d.d.r. .C = . .   ",
"    . $ 3.d.r.d.d.r.u.r., . . X ' d.d.u.d.r.d.r.r.d.i . # c c G I - . + z H w o . [ s.d.r.a.F * { s.s.%.O X { d.Q & , c $ . .   ",
"    . = r.u.d.d.d.d.d.u.r.i . . O t 1.d.u.d.r.d.d.d.Y . + z G c c w $ - c c z + . F s.d.a.r.* . , s.a.r.& . i d.; . % w o .     ",
"  . . ; d.u.r.] +.d.r.d.s.+.o . . . $ n -.d.d.d.r.d.{ . X w c H G c G c G c c $ . > s.i.r.i.{ , %.s.u.s., . * u. .; 4 - . .     ",
"  . . > d.d.) X $ <.d.r.s.*.O . $ o . . # , | r.d.s.+.O . , I c c G c G c c I = . & r.i.i.i.s.s.u.u.s.s.] X O $.d.) c @ . .     ",
"  . . : d.d.{ + * 3.d.r.s.%.+ . , 4 & X . . X & i | %.# . ; C C G c c c H G I > . + *.d.d.r.d.r.d.r.d.r.3.$ . n -.H , . .       ",
"    . * r.d.r.%.3.d.r.d.d.*.@ . > I c w = + . . . . # X . % 7 f c G C I I c c w O . ~ d.r.d.r.d.r.d.r.d.d.4 . $ Q z $ . .       ",
"    . @ *.d.d.d.u.d.d.r.u.3.$ . : G c G I c , * + X . . . . X + @ & * ; : , w w # . > u.d.s.s.d.s.s.d.d.u. .O . > ; . .         ",
"    . . R d.u.d.d.r.r.d.r.r.$ . - G G c G c G G z 4 ; $ . . . . . . . . . X X X . . o = ; , i F ~ ' | +.-.-.= . + + . .         ",
"    . . - r.r.u.r.d.r.d.u.r.= . * I c c G c G c C C H 4 . X i Y , - & $ + X X . . . . . . . . . . . . O + @ O . . . .           ",
"      . . Y d.u.d.r.d.r.d.u.; . % G c G c G c G C c c f + . n j.g.r.e.3.:.*.} ` R * . o - - & $ @ + O X . . . . . . .           ",
"    . . . @ | d.r.d.r.d.d.d.t . @ c G c G c c c G c C c & . = u.d.d.d.r.d.d.d.d.s.{ X . Y d.r.r.3.-.%.| { ~ n - % . .           ",
"    . . . . $ +.s.r.d.r.d.s.Y . + x c G c w $ % s H c H > . + *.d.r.r.d.r.e.d.d.d.d.; . # *.s.u.u.s.u.u.3.d.%.H ; . .           ",
"    . . & O . + ) d.d.u.d.d.] . X 9 G c G 4 . X 9 H c G w o . I d.r.d.r.s.r.s.s.s.s.+.@ . - 3.s.d.r.d.7 + f ( 4 O . .           ",
"    . . * , + . X , -.d.u.d.%.+ . > G G c c ; ; c c G c c % . = r.d.r.d.r.r.[ [ u.d.s.F o . > 3.d.d.r.; . & f # . .             ",
"      . O f 7 $ . . $ H 3.d.0.% . - G c G c G G c G c G I > . o  .d.d.r.s.O.o O +.s.d.r.i . . - %.d.d.*.7 , $ . .               ",
"      . . : C f = X . . $ n -.; . % c G c I c c G c G c c x + . , d.r.d.s.%.$ & -.s.d.r.r.n . . @ n -. .7 + . .                 ",
"      . . $ c c G 4 & X . . + # . + f I I c c G c c H c c C - . O *.s.i.i.i.3.<.d.r.i.i.i.i.R @ . . @ $ X . .                   ",
"        . . > I c G c 4 & O . . . . $ = , s c c C H H G C C f O . : i.i.i.i.s.r.r.d.i.i.i.s.s.%., + . . . .                     ",
"        . . @ z c G c H c w ; # . . . . . o @ % = ; > 4 0 s z - . o ' i.r.r.r.r.r.r.r.a.q.q.<.%.-.) - . .                       ",
"          . . - I c G c H c C C * . X # O . . . . . . . X O O + . . + * * - - * * * * $ $ $ @ @ O O . . .                       ",
"          . . X 4 C c c H H c I , . o ` %.Q 7 ; & @ O o . . . . . . . . . . . . . . . . . . . . . . . . .                       ",
"            . . # f C w $ * c c c @ . , d.d.d.d.r.<.*.O.{ ) R F n > X . @ 4 i i i i i i C I Q C 4 & . .                         ",
"              . . & c > . o s G C - . + *.d.r.d.d.r.r.s.s.s.s.s.s.r., . . , r.s.g.d.d.d.d.d.u.` , X . .                         ",
"              . . . = s * - c c C w O . 4 d.d.r.r.d.r.d.s.u.s.u.u.d.r.> . . = +.d.d.d.r.d.r.` , O . .                           ",
"            . . X . . - G c G c C H = . + +.d.r.d.r.r.d.r.d.u.s.d.u.d.r., o . + i -.d.d.0.) ; X . .                             ",
"          . . + 4 & . . * c H G c C s + . ; r.r.r.d.d.r.d.r.s.s.u.d.u.r.d.~ # . . # 4 ] 4 $ . . .                               ",
"        . . + 4 H s + . . $ w c C c H ; . X C d.d.d.r.d.r.r.R - | s.d.u.d.r.*., O . . X . . . .                                 ",
"      . . O 4 C c - . . . . + : c C C C $ . + } s.r.d.r.d.r.* . , s.r.d.r.d.s.d.+., $ X . .                                     ",
"      . X , H c ; X . .   . . . $ 4 C C w + . $ ..s.r.s.d.u.' ; O.s.d.u.d.d.r.d.d.g.%.; . .                                     ",
"    . . - c C > X . .       . . . X % 4 c , o . @ ' s.s.u.u.d.d.u.d.u.d.r.s.s.r.%.i $ . . .                                     ",
"  . . $ c G w + . .             . . . X $ ; ; X . o >  .r.s.g.g.s.s.s.u.r.+.Y - + . . . .                                       ",
"  . . 4 G c & . .                   . . . . o X . . . o * t Y ' ^ F 8 ; $ O . . . .                                             ",
"  . X s H 4 X .                         . . . . . . . . . . . . . . . . . . . .                                                 ",
"  . . % , $ . .                                         . . . . . . . .                                                         ",
"    . . . . .                                                                                                                   ",
"      . . .                                                                                                                     "
};
